# xmcd CD database file generated by freedbAccess_ocx
#
# Track frame offsets:
#       225
#       12426
#       24335
#       37298
#       50730
#       60434
#       72485
#       87798
#       98866
#       111121
#       127610
#       140083
#       148176
#       162846
#
# Disc length: 2373 seconds
#
# Revision: 0
# Processed by: cddbd v1.4PL0 Copyright (c) Steve Scherf et al.
# Submitted via: CDnGo 2.00
#
DISCID=c509420e
DTITLE=Marcela Voborska - Ztraceny trate
DYEAR=1995
DGENRE=Country
TTITLE0=Prvni dama country music
TTITLE1=Kavarna Slavie
TTITLE2=Fiesta
TTITLE3=Hadi ustknuti
TTITLE4=Auto pro muj skalp
TTITLE5=Ikaros
TTITLE6=Leto je bliz
TTITLE7=Ten chlap ma konskou naturu
TTITLE8=Tulak
TTITLE9=Reziser
TTITLE10=V zajeti swingu
TTITLE11=Bez o dum dal
TTITLE12=Ostrov
TTITLE13=Ztraceny trate
EXTD=
EXTT0=
EXTT1=
EXTT2=
EXTT3=
EXTT4=
EXTT5=
EXTT6=
EXTT7=
EXTT8=
EXTT9=
EXTT10=
EXTT11=
EXTT12=
EXTT13=
PLAYORDER=
